<mxfile host="app.diagrams.net" modified="2023-10-30T08:23:52.140Z" agent="Mozilla/5.0 (X11; Ubuntu; Linux x86_64; rv:109.0) Gecko/20100101 Firefox/118.0" etag="DpS4mEzRHroUGS7ppWFL" version="22.0.8" type="device">
  <diagram name="Page-1" id="LfT_vYi321T0g5xFwu1h">
    <mxGraphModel dx="2210" dy="1895" grid="1" gridSize="10" guides="1" tooltips="1" connect="1" arrows="1" fold="1" page="1" pageScale="1" pageWidth="850" pageHeight="1100" math="0" shadow="0">
      <root>
        <mxCell id="0" />
        <mxCell id="1" parent="0" />
        <mxCell id="YoOEF6NpQiSxoWh0JSfD-22" style="edgeStyle=orthogonalEdgeStyle;rounded=0;orthogonalLoop=1;jettySize=auto;html=1;entryX=0;entryY=0.5;entryDx=0;entryDy=0;" parent="1" source="YoOEF6NpQiSxoWh0JSfD-1" target="YoOEF6NpQiSxoWh0JSfD-2" edge="1">
          <mxGeometry relative="1" as="geometry" />
        </mxCell>
        <mxCell id="YoOEF6NpQiSxoWh0JSfD-26" style="edgeStyle=orthogonalEdgeStyle;rounded=0;orthogonalLoop=1;jettySize=auto;html=1;entryX=-0.024;entryY=0.633;entryDx=0;entryDy=0;entryPerimeter=0;" parent="1" source="YoOEF6NpQiSxoWh0JSfD-1" target="YoOEF6NpQiSxoWh0JSfD-3" edge="1">
          <mxGeometry relative="1" as="geometry" />
        </mxCell>
        <mxCell id="URvP16V56wutfkIFJM5n-18" style="edgeStyle=orthogonalEdgeStyle;rounded=0;orthogonalLoop=1;jettySize=auto;html=1;entryX=0;entryY=0.5;entryDx=0;entryDy=0;" edge="1" parent="1" source="YoOEF6NpQiSxoWh0JSfD-1" target="URvP16V56wutfkIFJM5n-1">
          <mxGeometry relative="1" as="geometry">
            <Array as="points">
              <mxPoint x="-160" y="660" />
              <mxPoint x="70" y="660" />
              <mxPoint x="70" y="840" />
            </Array>
          </mxGeometry>
        </mxCell>
        <mxCell id="URvP16V56wutfkIFJM5n-19" style="edgeStyle=orthogonalEdgeStyle;rounded=0;orthogonalLoop=1;jettySize=auto;html=1;entryX=0;entryY=0.5;entryDx=0;entryDy=0;" edge="1" parent="1" source="YoOEF6NpQiSxoWh0JSfD-1" target="URvP16V56wutfkIFJM5n-4">
          <mxGeometry relative="1" as="geometry">
            <Array as="points">
              <mxPoint x="-160" y="660" />
              <mxPoint x="70" y="660" />
              <mxPoint x="70" y="725" />
            </Array>
          </mxGeometry>
        </mxCell>
        <mxCell id="YoOEF6NpQiSxoWh0JSfD-1" value="API GATEWAY" style="rounded=0;whiteSpace=wrap;html=1;" parent="1" vertex="1">
          <mxGeometry x="-240" y="470" width="150" height="140" as="geometry" />
        </mxCell>
        <mxCell id="YoOEF6NpQiSxoWh0JSfD-6" value="" style="edgeStyle=orthogonalEdgeStyle;rounded=0;orthogonalLoop=1;jettySize=auto;html=1;" parent="1" source="YoOEF6NpQiSxoWh0JSfD-2" target="YoOEF6NpQiSxoWh0JSfD-5" edge="1">
          <mxGeometry relative="1" as="geometry" />
        </mxCell>
        <mxCell id="YoOEF6NpQiSxoWh0JSfD-16" style="edgeStyle=orthogonalEdgeStyle;rounded=0;orthogonalLoop=1;jettySize=auto;html=1;entryX=0;entryY=0.5;entryDx=0;entryDy=0;" parent="1" source="YoOEF6NpQiSxoWh0JSfD-2" target="YoOEF6NpQiSxoWh0JSfD-3" edge="1">
          <mxGeometry relative="1" as="geometry">
            <Array as="points">
              <mxPoint x="200" y="480" />
            </Array>
          </mxGeometry>
        </mxCell>
        <mxCell id="URvP16V56wutfkIFJM5n-12" style="edgeStyle=orthogonalEdgeStyle;rounded=0;orthogonalLoop=1;jettySize=auto;html=1;exitX=0.25;exitY=1;exitDx=0;exitDy=0;entryX=0;entryY=0.5;entryDx=0;entryDy=0;" edge="1" parent="1" source="YoOEF6NpQiSxoWh0JSfD-2" target="URvP16V56wutfkIFJM5n-4">
          <mxGeometry relative="1" as="geometry">
            <Array as="points">
              <mxPoint x="155" y="410" />
              <mxPoint x="70" y="410" />
              <mxPoint x="70" y="725" />
            </Array>
          </mxGeometry>
        </mxCell>
        <mxCell id="URvP16V56wutfkIFJM5n-13" style="edgeStyle=orthogonalEdgeStyle;rounded=0;orthogonalLoop=1;jettySize=auto;html=1;exitX=0.25;exitY=1;exitDx=0;exitDy=0;entryX=0;entryY=0.5;entryDx=0;entryDy=0;" edge="1" parent="1" source="YoOEF6NpQiSxoWh0JSfD-2" target="URvP16V56wutfkIFJM5n-1">
          <mxGeometry relative="1" as="geometry">
            <Array as="points">
              <mxPoint x="155" y="410" />
              <mxPoint x="70" y="410" />
              <mxPoint x="70" y="840" />
            </Array>
          </mxGeometry>
        </mxCell>
        <mxCell id="YoOEF6NpQiSxoWh0JSfD-2" value="Bidding engine service" style="whiteSpace=wrap;html=1;" parent="1" vertex="1">
          <mxGeometry x="110" y="240" width="180" height="130" as="geometry" />
        </mxCell>
        <mxCell id="YoOEF6NpQiSxoWh0JSfD-7" value="" style="edgeStyle=orthogonalEdgeStyle;rounded=0;orthogonalLoop=1;jettySize=auto;html=1;" parent="1" source="YoOEF6NpQiSxoWh0JSfD-3" target="YoOEF6NpQiSxoWh0JSfD-4" edge="1">
          <mxGeometry relative="1" as="geometry" />
        </mxCell>
        <mxCell id="URvP16V56wutfkIFJM5n-20" style="edgeStyle=orthogonalEdgeStyle;rounded=0;orthogonalLoop=1;jettySize=auto;html=1;entryX=0;entryY=0.5;entryDx=0;entryDy=0;" edge="1" parent="1" source="YoOEF6NpQiSxoWh0JSfD-3" target="URvP16V56wutfkIFJM5n-4">
          <mxGeometry relative="1" as="geometry">
            <Array as="points">
              <mxPoint x="425" y="660" />
              <mxPoint x="70" y="660" />
              <mxPoint x="70" y="725" />
            </Array>
          </mxGeometry>
        </mxCell>
        <mxCell id="YoOEF6NpQiSxoWh0JSfD-3" value="Inventory Service" style="whiteSpace=wrap;html=1;" parent="1" vertex="1">
          <mxGeometry x="340" y="420" width="170" height="120" as="geometry" />
        </mxCell>
        <mxCell id="YoOEF6NpQiSxoWh0JSfD-4" value="MongoDB Primary" style="shape=cylinder3;whiteSpace=wrap;html=1;boundedLbl=1;backgroundOutline=1;size=15;" parent="1" vertex="1">
          <mxGeometry x="630" y="420" width="110" height="120" as="geometry" />
        </mxCell>
        <mxCell id="YoOEF6NpQiSxoWh0JSfD-5" value="MongoDB" style="shape=cylinder3;whiteSpace=wrap;html=1;boundedLbl=1;backgroundOutline=1;size=15;" parent="1" vertex="1">
          <mxGeometry x="620" y="245" width="110" height="120" as="geometry" />
        </mxCell>
        <mxCell id="YoOEF6NpQiSxoWh0JSfD-21" value="&lt;div&gt;real-time information about product&amp;nbsp;&lt;/div&gt;&lt;div&gt;availability and inventory levels&lt;/div&gt;" style="text;html=1;align=center;verticalAlign=middle;resizable=0;points=[];autosize=1;strokeColor=none;fillColor=none;" parent="1" vertex="1">
          <mxGeometry x="110" y="440" width="210" height="40" as="geometry" />
        </mxCell>
        <mxCell id="YoOEF6NpQiSxoWh0JSfD-23" value="bid-related operations" style="text;html=1;align=center;verticalAlign=middle;resizable=0;points=[];autosize=1;strokeColor=none;fillColor=none;" parent="1" vertex="1">
          <mxGeometry x="-40" y="268" width="140" height="30" as="geometry" />
        </mxCell>
        <mxCell id="YoOEF6NpQiSxoWh0JSfD-27" value="checking product availability" style="text;html=1;align=center;verticalAlign=middle;resizable=0;points=[];autosize=1;strokeColor=none;fillColor=none;" parent="1" vertex="1">
          <mxGeometry x="190" y="500" width="170" height="30" as="geometry" />
        </mxCell>
        <mxCell id="URvP16V56wutfkIFJM5n-6" style="edgeStyle=orthogonalEdgeStyle;rounded=0;orthogonalLoop=1;jettySize=auto;html=1;entryX=0;entryY=0.5;entryDx=0;entryDy=0;" edge="1" parent="1" source="URvP16V56wutfkIFJM5n-1" target="URvP16V56wutfkIFJM5n-2">
          <mxGeometry relative="1" as="geometry" />
        </mxCell>
        <mxCell id="URvP16V56wutfkIFJM5n-1" value="Promtail" style="rounded=0;whiteSpace=wrap;html=1;" vertex="1" parent="1">
          <mxGeometry x="130" y="810" width="120" height="60" as="geometry" />
        </mxCell>
        <mxCell id="URvP16V56wutfkIFJM5n-7" style="edgeStyle=orthogonalEdgeStyle;rounded=0;orthogonalLoop=1;jettySize=auto;html=1;entryX=0;entryY=0.5;entryDx=0;entryDy=0;" edge="1" parent="1" source="URvP16V56wutfkIFJM5n-2" target="URvP16V56wutfkIFJM5n-3">
          <mxGeometry relative="1" as="geometry" />
        </mxCell>
        <mxCell id="URvP16V56wutfkIFJM5n-2" value="Loki" style="rounded=0;whiteSpace=wrap;html=1;" vertex="1" parent="1">
          <mxGeometry x="365" y="810" width="120" height="60" as="geometry" />
        </mxCell>
        <mxCell id="URvP16V56wutfkIFJM5n-3" value="Grafana" style="rounded=0;whiteSpace=wrap;html=1;" vertex="1" parent="1">
          <mxGeometry x="590" y="810" width="120" height="60" as="geometry" />
        </mxCell>
        <mxCell id="URvP16V56wutfkIFJM5n-5" style="edgeStyle=orthogonalEdgeStyle;rounded=0;orthogonalLoop=1;jettySize=auto;html=1;entryX=0.5;entryY=0;entryDx=0;entryDy=0;" edge="1" parent="1" source="URvP16V56wutfkIFJM5n-4" target="URvP16V56wutfkIFJM5n-3">
          <mxGeometry relative="1" as="geometry" />
        </mxCell>
        <mxCell id="URvP16V56wutfkIFJM5n-4" value="Prometheus " style="rounded=0;whiteSpace=wrap;html=1;" vertex="1" parent="1">
          <mxGeometry x="130" y="700" width="120" height="50" as="geometry" />
        </mxCell>
        <mxCell id="URvP16V56wutfkIFJM5n-14" value="logs" style="text;html=1;align=center;verticalAlign=middle;resizable=0;points=[];autosize=1;strokeColor=none;fillColor=none;" vertex="1" parent="1">
          <mxGeometry x="75" y="808" width="50" height="30" as="geometry" />
        </mxCell>
        <mxCell id="URvP16V56wutfkIFJM5n-15" value="metrics" style="text;html=1;align=center;verticalAlign=middle;resizable=0;points=[];autosize=1;strokeColor=none;fillColor=none;" vertex="1" parent="1">
          <mxGeometry x="65" y="700" width="60" height="30" as="geometry" />
        </mxCell>
        <mxCell id="URvP16V56wutfkIFJM5n-23" style="edgeStyle=orthogonalEdgeStyle;rounded=0;orthogonalLoop=1;jettySize=auto;html=1;exitX=0.5;exitY=0;exitDx=0;exitDy=0;entryX=0;entryY=0.5;entryDx=0;entryDy=0;" edge="1" parent="1" source="YoOEF6NpQiSxoWh0JSfD-2" target="URvP16V56wutfkIFJM5n-37">
          <mxGeometry relative="1" as="geometry">
            <mxPoint x="520" y="55" as="targetPoint" />
          </mxGeometry>
        </mxCell>
        <mxCell id="URvP16V56wutfkIFJM5n-24" value="Store sessions" style="text;html=1;align=center;verticalAlign=middle;resizable=0;points=[];autosize=1;strokeColor=none;fillColor=none;" vertex="1" parent="1">
          <mxGeometry x="420" y="140" width="100" height="30" as="geometry" />
        </mxCell>
        <mxCell id="URvP16V56wutfkIFJM5n-25" value="logs &amp;amp; metrics" style="text;html=1;align=center;verticalAlign=middle;resizable=0;points=[];autosize=1;strokeColor=none;fillColor=none;" vertex="1" parent="1">
          <mxGeometry x="-140" y="628" width="100" height="30" as="geometry" />
        </mxCell>
        <mxCell id="URvP16V56wutfkIFJM5n-26" value="logs &amp;amp; metrics" style="text;whiteSpace=wrap;html=1;" vertex="1" parent="1">
          <mxGeometry x="210" y="630" width="110" height="33" as="geometry" />
        </mxCell>
        <mxCell id="URvP16V56wutfkIFJM5n-27" value="logs &amp;amp; metrics" style="text;whiteSpace=wrap;html=1;" vertex="1" parent="1">
          <mxGeometry x="60" y="380" width="110" height="40" as="geometry" />
        </mxCell>
        <mxCell id="URvP16V56wutfkIFJM5n-37" value="" style="shape=image;verticalLabelPosition=bottom;labelBackgroundColor=default;verticalAlign=top;aspect=fixed;imageAspect=0;image=data:image/png,iVBORw0KGgoAAAANSUhEUgAAAQQAAAGVCAIAAACXUBi7AAAACXBIWXMAAA7EAAAOxAGVKw4bAAAgAElEQVR4nO29eXxTVf7/f5LcbM1SWmhp0qaApSuIY1nKoiA41BmqLJYZyrhAHQHH+Q24gDPfn+CGfj4fFhWc70cBFRgFAaVqcYojzIDgsEmpI7alaa1Cl7SUkpKt2e7y/ePEa8hyclPa5Cac58OHD5qe3Hvyunmd836/z7m3AoZhAAaDAUAY7Q5gMHwBmwGD8UDcyJu7rlwx9lyz2Wy9vXYcbGEij0wqVSgS1CqVLiP9xo/WFzMYjT1nqmsav//earWJxYRSqVQqFAKB4MZ7g8GEhd3usFqtdodDIhGPGD6s8LYxt4wY3uejCcJKoHvt9iNffvXtd7WDByePzs/Lz80ZPDi5z+fGYPoFu8Ohb/y+vqHhx4stwzJ19/xyRsqQwX04ThhmuGrs2fNhhUwmnXbH5OyRWX04GQYzoHRduXL8xKnmHy6Wzrl3ZNYt4b6dqxk6Oi/v2vtRXk72fbPuCb+TGEzkOPfNf/5x+Mi9vy6+7dbRYb2RU85gtlj2fvRx4W1j7p4+tU/dw2Aix9jbf6FSqj76pHJQYuKwTB33N3Iqre7b/+ng5CTsBEyskJOdNWFc4UefHLBYrdzfFdoM5775j7GnZ97se2+gbxhMpJk54y6lUvHlVye4vyWEGdxu97GvTk6ZOEGlUt5Y3zCYSPPL6dPOf1fXdaWbY/sQZmhq/oGkqIkTxt1wxzCYSDPylhGatKF19Rc4tg9hhu+bf8zOuoUgbmihGoOJFnm5Od//8CPHxiHMcPFSS/bIsOu1GAxPyM4a0XWl2253cGkcwgwWq1WlxNkCJlYZlDgIAHC1x8ilMcoMNlsvAEAul/VLtzCYyCMWEzKp1GQyc2mMMoPT5QQASCSS/ukXBhMNEhIS4LAeEpQZ4EYNfCscJtbh+B3GN/dgMB6wGTAYD9gMGIwHbAYMxsNNaob9nx78741vct+1EkXWv75lz0cHonLqllbDhk1bo3X2yMOLfRa1dfrVazeOys955flV6BcBAA8vedJssQIAPt37Nvqwez46sK/is9p6/eiC3MwM7YLS+6ZM8myy+vSzQ4f+dfy+Wb9MTRnS35+mn9m4edukosKFv5nt/SIUh/0xM0M7eeK4XxfflahW9eOpW9sMGzZt9T97vMILM5jMlpOnz/nUvwK+WFun/8fhY/DfB784Ouue6cEOOK9sSW19IwBgUlGhyWTZe/qzvfs/27zhhX65ri2thn0Vn2Wka6L1LYHisD+eBOf27v9MrVZ+uuft0aNy0e+FnZ9cNJYdGjCQGAuT9uw/AABYUHovAODzQ0eDNXt4yZO19Y2j8nOazh+r3PfO0c/37tz6KgBgxaoXTGbLjXcDDpl790c/fui6WNN1sab6q7//auY0s9k6d+GSllYD+i2w8ydOV0emhzFEjJnh80NfqlTKVU88BgD4/PCXAdvU1ulPnalRqZSf7nubDRtm3TP9VzOnAQAOfuFroT0fHZhbtqS2Ts++fW7Zkmdf3AB/PPjF0bllS1KHF84tWwLfW1unX7N2IwCg7kLj3LIlbEh94lT13LIlY+8omVu2ZMOmrezxn31xw9yyJSazZfnK5//09HPoxmx/Ro6ZumjpUyG/2ZBMnfa9t1+fVFRoNlu3bt/NfpBFS58ae0fJ2DtKlq98Hh5qz0cHYOf3VXzGfmqT2bJh09YZs8pGjpnKfkxvDn5xdMassrF3lPh06eAXRxctfWrkmKkzZpUtX/k8O9DAU8PXV7+00XsAWv/6Fvjp5pYtOXGKX4aMJTPU1unb2jtmFd+VqdOOys8xm63+lw0AcPDQUQDA6IIcnwD6vbdf77pY4x/YtLYZTp4+x14wGIHU1usBAAe/OLp42dNqlXLliqUmk2Xxsqfh9ftpbf7npc2DXxydt3CpyWRZUHqfLl2zYdPWRUuf8nS7Xn/y9LlFS5/au/+zljYDuvH617esWPXCd3X6BaX3MQwzt2wJd33K5s+GpwMAtLQa5i5c8u9T1QtK75tcNHbv/s8WL/Ocwr/zq1/csGHT1lH5OUvLf9fSamA/JqTuQuOfVj4/qWjsqPyczw99OaOkDGp14lT14mVPf1enX1r+u4x0zd79n61+cQMUEJ56afnvRuXnbNv+wfrXt8BDzVnw6MbN23TpmqXlv2MYZt7CpQGvYLTgRc4AOXWmJnV4IaIBjJF+XTwdAFA2/741a1/9/FCAtAFeqikT+yEghl+sZY88MGXSuLL5s2FcNHpU7svPrZy3cOnogpzKfe/Aln9a+XxGusZ7LtpX8ffaOj0bwatVyqbzx+BvEY23bv9ApVLWnKiCv1r/+paNm7dx7G1mhhYAcOpMDez5qPycZY88APVpaTOcOlPT0mpY+JvZmRnaeQuXls2/75knH4NvbGkzLCi996+vvgQAGF2Qu3jZ0ydOV7MZBcMAn/6sfnHDX199qbZeP6mo8JXnVsHPmDq8EM7VtXV6s9m6pHwhPP7oAo8Cez46cOpMDXsik9lSOKVkzdqNwRK/yMMjM6hUytEFOeyPZrO17kKjdwMYI0Htfl08fc3aVwNGSvCytbZxCjDQ6DK0AIBFy56aVTx9dEFu2fzZmTqtf7MTp6otFuugRNW27R94Om+xAgBOnK5mzfDME4/BjiEam8wWi8X6q5nTfo7uiqdzNwME3qA7657ps+6ZfuJUNYzB2to7AACtbYaA/a/c905Lq2Hv/s9a2wz+uk2ZONanP3B+W/b7B8p+M7uuvhGeQpehaW3rgKKpVMq3d+xpa+8YXZD765l3QRHgyCIQCNiwcFCiCr6FJ/DIDN4DLQDgxKnqeQuXsj/CGAkA4D17wEjJZ2iBV87HSPCAJ8+cC6uKAmOqvfsP7N3/GQCfrX5pI6IexTDg36fOsj9OKipUe8VpPkUeRGPoQM+/A313g8HGhwBmPguXmM3WSUWFAIBrJlTZ4E9PP7ev4u8Z6RpdhsZs9n2chHd/vD/FwS+OLl/1PMN4zsieIlOnfW/ba1u37/73qerPD325YdPWsvn3vbHxRWiz7+r0l1rbYcuMdE1GusZ7/owuPDIDGraOxF6bE6erT52p8Y+U4KRRW9944lS19/d+/aYtp87UwLISAu9sr7ZOP0yXDi0K84e9+w/4mwF2SZehYc1sMlvq6hsz0jX+x0c0NpstAIBTZ36umXJPMWHBFPyUOazftMVstn6yZxtUYM6CR2H45M/BL47uq/g7G734jEGI/qx+aaN3BFU4pcRiscKeCASCv776UqJa1dJqmFu2ZO/+z9Y+t3J0Qe4/Dh9b9cQy9nrV1unNFitPnABiKIH+/NCXAIC/vvrSM08+Bv975blVIFBNKVOnXVK+EACwaNlTGzZtPXn6HMxfT52pGZWf4z8twGu5bccHJrOlpdWwcfPPtZ2t23ezJRfvN8IvdFt7h8lsMZktmTrtpKLCU2dq2MrSn55+bm7ZEhgY+HcvYOPWNsPoUbkZ6Zra+kYYQfl0JiAnT5/7/NCXq1/aOKOkDM4D0KvQ0vCj1dbp/edJ+EpLqwG2hPOSyWzZtuMDn5be/YGVKOg3k9nCPmz64BdH4bwNAKit188tW7J85fPww3qHWACAjZu3wnoUTPH/v5/Ka3wgNswAYyRYG2WBX52ANaVXnl+1pHyh2WzdsGnr3LIlc8uWfH7oy0lFhX/b9pr/Gm3Zb2arVMrPD32ZPWbauDvvHZX/c96y7JEHVCrljJKFqcMLs8dMAwA888RjAABYzmpt68geM23ru7sBAH/d+NKo/JwVq15IHV6YOrzwH4ePLSi9N1hqGLAxNNt7215TqZSrX9qYOrxw3J33Lin/HVqZuWVLFi19atv2DxgGrFyxlJ1t4Pd1RsnCsXeUzClbolZdF7BlpGs+P/Rl6vDCvfsPzLpnOgzxx95Rkj1mmn8xNyNds+Xd3bA/tfWNC0rvhX4rm3+f2WzNHjNt5JipsCQA28MqNjx+6vDCuguNS8oXJqpVo0flbt7wwqVWw7g774VHYxjw3rbX0B8wkqCetXrV2LPlnR2PL30kadCgAe2EyWyprdNDvQK+2NJqaG0z6DK0PvlfbZ3eZLb4vw5paTWcOF3d2mZIVKumTBznffDTX9d0dF6ZcdfkxJ9GxINfHG1tM8wqnq7Tab07YzJbTpyqrq3X6zK0UyaOY0/k/Rb2yCdOVZ84Xe1zOthJ/xkpYGP/I584Ve2jDCuO9yv+x6+t0x88dDRRrfp18XSz2WIyW0aPyvX5vLAkYDJb9n50wGS2wJ7U1umhpOwl0Om0sIH3h/X+CGW/md3aavD+mPDsAACft7S0Gmrr9VDPWfdM79/9IwF56+0dhb8YUzR+bMiWvDADBjNwcDdDbIRJGEwEwGbAYDxgM2AwHrAZMBgP2AwYjAdsBgzGAzYDBuMBmwGD8YDNgMF4wGbAYDxgM2AwHrAZMBgP2AwYjAdsBgzGAzYDBuMBmwGD8YDNgMF4wGbAYDxgM2AwHrAZMBgP2AwYjIeYeaJeH3A1NpgPVtprzrqaPE9VITRaxdQZ6llzJDl50e0bz7k5pYtDM5Ad7ZaDB8xVn5Idvs/DIjsMpn27TPt2ERrtoAUPKaZOJzTpUekkPyE72m3Hj17b9z5aOnXJXNWs2fEnXVyZwXKw0lJVaa85G7Il2WHo3rSue9M6xdQZqpI5iqkzItA9PmM5WGk7dsR2/EjIlmSHwfjOm8Z33ow/6eLBDK7Ghmsf7rIdO0Jbr3vWdOKCB23Hj/gMckKlSqhSsS/ajh+xHT8Sx6MdGhgOWaoqfaRLfvRx67F/sTESJKB0QqVKVTJn0IIH40C6GDYDbTHDcMjnmv3cwGoZ9vEX9pqzlqpPnU16+e3jFNPulheOv3T/PT4t2dFOXjheVTJHNWvOwHc/mtAWs+2ro9f2vh9MOmdjg+69/a7Ghmv73rd/Uy2/fZxi6gzFtLtbH57veyirBYZPcSBdTJrBXnMWRkToZpaqyuRHH5cXjpcXjmdf9J8rfI5srznb/fq6uBntfOAone34EVeTXpKTl7rmFfZFxzfVwcwDvKRTTJsx6LcPxmKeHUtmQGTGPhAarWrWHHXJHCLN94HE4jSt4s7ptq9Qf0rMZ7RT3DldqFLfaO+jCiIz9oHQaBV3Th9U9pD/QCBUKLlIZ6mqtFRVSrJzB5U9FFvSxYYZbMePWKoquaR3AABVyRx1yVwAAGD/fIAXkpy8tPVv0Bazpary2oe70F8OONoJlarYHe2iJZ2rSd+1dnVsScfrp3CTHe3X9u3yT+/CRffefkl2LgCge9M6ONE7GxsCHtNF0w6KVosDjxExNNpxn0XRpL+5Q3b7OABAz7tvwTIdQrpeNzVIKg54HFjLVs2aHXnpuD+Fm6czA6JIKlSqJNm5Yo2WncfJjnZ3h8HVpA/mme5N67T/u912/Ihp365gZzS5KKOTNJHM6a4erVySmyjPTUzwaQNHOwAAzBS9UxH+0L/SXV777LCPv3B8U218581gZ2Slu2yzW9zkrcmK4UqZVHTd5ga2lg2rsfwsyPLLDMGKpBBVyRz0hAurH5aDB3xeh1mj7ViAUMFF00YnbXSRLvrnFw12l8HuOnHZNEIluzVJMUQm8XkXDIvhaJe44EHuH3DgQM+ifZaO7DD0vPuWu6M9wFsCSdftIo92miSC0NKpS+YmLnhQqBzwP1bCHb6ESa7Ghu7N64OtlwmVqvT/3c4x7rTXnDX88RH/I/h8S4xO0uiirSTt0/J0V4/PK0MkRMDRDiKfXqz9rxB/NHFAQUsHvEIdLodq/+MjPkL5S8dOBT5vv2yz/2hzeL+Clk48pjBz69+4dOxGiLU/VsIwrUsfQlxOaU4e9wzMp5YK8b6cFM3oTc6WXtLfCQExk2S3w+2kAzdurwn8VzQjBlo6eeF4jk4AAEhy8qR+OvtI973F9aPN7e+EgJhJsr3XaXGTAX9rqL/AsWORgRdhEkPTJqstUSwK1sDZ2OBq0sMkOCSuJj16R4ZIKMhNlFrdtNFFGl0oP2jlkpxEeZ5f8uDpFUVftLmcEjK6qUOXyZoqC3odw5XO2diAaCASCkaqJL0k1e2krrkoGgQoOkEGS4hbkxUjgswJFM1c7HVdkxATuXQrUvDCDACAepMzVSYaniARCQPoS1st7Y+XDyp7SBVo6YDF1aQ3V32KyJK9UYqFSrEkXc5cdZHdTsrbFBIhyFUn3JqsCFZWclJ0p53scpIkAxRcTjaQNFtdFpLKkIsDfu1oq6X14fmJCx5Ul8xFWILsNFiqKq/tfZ9L4S6BEGUSonQ5Y3JTVxyUnf55lggpHUUzBgfZaXeTDJD4JhRRhi9mAAB0Oaguhz1VJkqTEQrCd5agrRa4Y4LQaKXZvrO5veasu6OdSxkRVlQc33j+uLdIKEiViVNlYjjakTRzV1pisKkAAGAjqU4H2eWgwv98A0iXg+pyUMGkAwCwG07FmnSfGNLZ2OBsauibdMlSIllKsNINTpLfk5EU7O1Oim6zu/kmnTc8MgMEXle1WJQiFQWc/ckOA9lh4LiKJMnOFadpJTl5sJ4Ivwfdm9axV5QFjnbIjpFXnJTZzd9ryVE6Lrt6QRDpet59qw/SGZ1kh4PX0kF4ZwaI2U2Z3VS73T1ESmhlRMDYyQc4bkmzc4UqtbxwvHc13RvHN9Uc4ygIRTNdTrLTQTooTilj1PGWLlUqChg7+cBROleTHrHa4E/MScdTM0AcFNPW627rdafKREOkBCLDBgDQVotYm66+dx4iMqatlstrn+V4djitG50UunAy5Be/4HjASNIH6ZR3/RJddwpLOjanQjCksJDjASMDP8wgFIqVKnfw1A0GAAqRME1ODJaIgk0U120RmzrDf0HH+M6bXIJj7tN66oQJE1/575DNBhQu0slEgnS5OKR0hEab/OjjAaXrefctxJZVFpOb6rS70TU6SOqECRNfXBuyWSThxTqDQCAo3v1B6oQJ6GY2im62ump67JesLicVVG64aeLSvHu6N60jO3/+6ocMkCia6bC7v+mx6y2ukE6Qq9V3vPJy8e49YqUS3XKgufezv4eUzkExULpmqxMhHdlhgNJ1vbzaRzp0gETRTJeD/KbHXm9yhnSCXK0u+stfinfvSdAGLQxGBdELL7wQ7Hd2u6O65j/jx94ul8kGuh/ylJQRxcWJEpGp4YLT6UK0pAGwkHSHgzS7aUIA5ERgPzMul7PuvGnfLsc31UKVihg8xPDkY8Hqhk6KvtTr+sHqMrrokKtJKrEwWyUZJgHM6a9cTXr5bbcLFdH0g0St5i6djWSgdAAARXDpXE16KB0QALEmHS1de6/7e6vrqitEPAkAUImFI5TiERIgqDnj+KZampsvSh7M6UPeANU1/9GkDc1ID208foRJAFiqPu3etJ62WgokoHeQzGB3X3GGGJthpijrDZFkw23YwQ7CfVoHAKRIRZkJEono5xPZjh9xmK4N39Jvewr0Td/nZo8M6y3e0rmS5C29LqOTpgDqi8kxyWZ3sAd0QrjSaeXiBC/72WvOtj278pZ9vruhogg/zEDTXS+vYX9KIIQjVdLhSqbDTl5xuJ1ItcPKFL3pcpDtdjeXQodUCFJkYo2cIPx2+VM00/7DpeEcT8mBr6trDv/ry5l338XdEt7SSUSCkSopqWSuOKgOu6tfpPN3QpeD7LSTtuDhFosICDQJxFAp4T2CsFxsNdwS8hARhBdmYBimw+7WyK/bCk8IBLoEsS5BbHSRBjtpcYeQ3jvJRmxPgCug3U5O9T6VWDhUSqQEOZrJTf1gdYlk/Vw+N5nN+z85MEyXcd+sXyUmht7932x1Ziml3q8QAoFGTmjkhNFFdtmpnlD5j3eSjZAOhDOCJIgEWrkYId0lq9ut4MXXj4Uvvbloc19xUMOUYv/xKVlCJEsIF8W0291XHBQ6AIBJ9iWbK00u9gkAnBTd5aTgRoCQwHUrdZDB0rvcNEDbMS61tv3fre9MGFd455RJMqkU0bLLQZnd9oDf47Ckg0n2JZsrVUqkyYkBks7kptp6SSgdz3Zj8MYMAAAbRdebnMGKgBKRYIRSolMwPU7KYHf3IgcnkgEwAFCIhPA4FM3c+LRO0cxVF8VxaAQAfPRxpdPp5NKS5XLXFe8fv66u+fa7uqlTJk0YhyrJw+9xu92dJiNSpb7pE5RuhBJccZBcpDM4SIOD7F/pQDizSrTgkRkgnvFJAPzHJwAAIRCkyIgUGWF2U3B/BPpoNooG3KIY9LTOcRXJh2GZOkeYZugxmXz8MzQ1ZWhqCpf3Oijmos3d1utOlooC7tuD0vWSNJf6BHfppEKgS5AgpOM+q0QX3pkBwo5PyRJhipRIlvr2Uy0WqcUijkk2mpDTOveaiQ/o4Twgl1pazWZPwpqoVk2dMnnMraPCOgLJ/LxJSSMT+UvH1ie4JNloksQibQJKum4n7zY1IuCpGViMLtrocsl6AwcA4SbZ3oiAIEUmSpeLEdM6l5pJ1vzfcD8pR6QSyYTxYyeMK0RnC2jQpedwk2xvRECQLBX6VJm94Sjd8Hvv437SCMALMwhEoqS8vJ6GoLeVwADgos0dbJcymylyqbIjSqUgzGl9zJ+Wj/nT8tDtwiFnZFbx3dO51JEgIaVD10/DSrJhYtAv0uUtWjxu9ZrQ7SIIL8wAAJi5e8/5NzY3/G0nuhm6fhqyyo6ObsOa1lOkoty7pg29YzKXxtyZza2c6s3M3Xsadu64sH2722ZFNEPv7/KuT7T2BpZOI5ekyEQBbRCudNkTxg29s5+lu3H4YgZCADKBU5kxpNNo6uglOdZPgyXZMAAwuymTmzbBAqhImCgRJksCf95wV5Hg0EidO204dzrx4UeH/GFFOJ8VRbhOAAAQApBmviIfLG9nnFyl41Cf4C4dx9s8vMtNzIXvOv/yhGLW7DSvx1dGHX6YgWEuzpnJ2HvFAOgSxBo5EWx88oZjkq0DgR9rBa6/BTEkwWaVHys/7Ucz9AEonRAAmD6FVT8NlmRzlI7j2iWULknqO6tcPvJPbAZfGJq2WixsJhBu/RSdZAckrFsQETWT1l53T7QfCOAtHfipfspROo77u7zheJsHRCUWauVEwFmlw+7ucrtuC32MyMELMwAA6k3OjASxz44MOD5lJjCXnZw2KaGr7BDuNzGjy03sEpIiOo/e/Jl6kzNNLtYlBJCuD/u7gt1FDcIZQdDlJlY6iVoe8lCRhC9mIBlw0ebudJD+o7tEJGADgMvOEPVT7yq7963AcPGYY3QbbFoHYYYHkQEut3c7Sf/RvW/7u/ylM7mpK84Qj9WBIPJs/t8FyhczQNCjOwwAONZPYQDQbHURAgAA4Lj8iYiIwgoPIg96dA+rfto36RARUd/W7yMPv8wAQa+hsvVTLkk24HYt0RFRrDzcAYJ4RkZY+7sAZ+kQEdGNrN9HHj6agQWR3oWbZAcDPa1z2Zanzsrq26kHFMTtO/0oHeI2Dy7SJaSl9e3UAwQvzCAQom7FRq+hhpVke4O4V4H7tK7Qasf9H67PjBggEA8E4CJdH/Z3ITY1hiXdHa9t4nrKiMALMwCBYNqbb5185hnEUx4Acg01rCRbJRZmJogDJgbcp3WxUpVfXj5meTRXGCB3bdly8plVNgPqqR+IZ2SwSXaEpctbXC5R8+tvvvDDDADoZhbPOzaxYeeO5or96OuKXkNFBwD+d+JCwrpRQaHV5i1+JKu0lCfXcmjRxHnHvrqwY0fDzu1o6djt8Yj6BNzg7V+fQJQWuN+ooNBqs0rn89AGEL78fQZvmiv2N+zcgdh85k2wNVQAAMkwvSRt8jwJQqAWB0gMwip0pE6YkHV/aVap759/5Q/NFfubP67o+vprLo1RD6LkJh33bXlJeXl5i8ujIl1s/xmrrNL5WaXze+rrL+zc8cMnH6Mbo5NsGBYHfGNYe8tumXd/Vmnp0CJePUE9AH2QLliSjZAurKcvx4p0gJ8zgzcus5lL7MSCXkOFeN+GiwZGt1n3lyoyMrj2mDe4zObmioqQsRMLl8eLhCVdVmlp/uLyqEsX2zODNxK1eszyFWOWr2g9fOjCzh0hAwD0k6i5b7GM4rTeX0jU6vzy8vzy8tbDh5orKtr+9U90e/T2eO6LLQqtdszyFbqZxfxMDBDw3QwsupnFupnFtra2Czt3NFdUoOtOMAC4ZHOpxcIEQgQA6CUpszv00/JATE3rHAlLOnZ7fB+ky7j7l/nl5bErHd/DpIC4zObWw4e4J9lciOmIKCzCqk9wgT8RUUDiJ0wKiESthpni5TOnmysqQmaKaGJ3Wu8bYSXZaOJMupg0A8vQoolDiybetnxF88cV3JNsltQJE25bviJ2p/UbIamgYPL6DeNWrwmrPsGSOmFC/uJy3cziAepeVIhtM0AUGRkwyeZeZb9l3v23LV/Bz2k9koRbnwAA3DLv/vzF5UkFBRHoXoSJBzOwcAkAsA0CwibZ376x+aaVLq7MAGEDgOaKitZ/HrK1tbnMlqSCfN0vizNnzozja3njKDIyfKSzGQypEybcJNLFoRkgbJU92h2JPW5a6XjxZ6wwGD6AzYDBeMBmwGA8YDNgMB6wGTAYD9gMGIwHbAYMxgM2AwbjAZsBg/GAzYDBeIjD7Ri1dXqzxfM3bEYV5CSqVT4NTpyqHj0q1/91zIlT1YKfnoIRULraOj0AYPSo3Ej3LCLEoRmefWnDqTM17I+jC3Le2PAivH4trYbFy56qrW/8ZM+2KZPGRa+PPGXewqXeP06eOPblNSvZr/7617ds3LxtUlFh5b53otG7ASc+w6RJRYVdF2vgf5OKxs5duMRkthz84uiMkrIFpfz6C5N8Y+WKpVC3pvPHdOmauQuXwNen/7rsxOnqBaX3Rrd7A0p8msGbV55fZTZb4fz+6Z63l/3+gWj3KDZIVKuWPfIAK92vi++q3PeOLkMb7X4NIHEYJgXEZLbMumd6tHsRwzzz5GPR7sKAE/8zw9Z3d6tUSkja/iYAACAASURBVJwhhEttnX75qudH5efEa7rsT3zODHUXGueWLQEAmM2WS62Gl59biWtHHNm4edvGzdsAACqVclbxXS8/vyraPYoc8WkGXbp21Ypl8N94TgiLlSuWPvPkY8++uOEfh798+flVN9UgEp9hklqtnDJpHPwv2n2JSZ558jGGAetf3xLtjkSU+DQD5gZJVKve2/ba2zv2nDhVHe2+RA5sBkxgRo/KXbli6aJlT5nMqGezxhNxaIbRBbmjC1AFkElFhTdVKMydSUWF3isJzzz52OSisXs/OsC+osvQorWNaWLywcMYDHe4P3g4DmcGDKZvYDNgMB6wGTAYD9gMGIwHbAYMxgM2AwbjAZsBg/GAzYDBeMBmwGA8YDNgMB6wGTAYD9gMGIwHbAYMxkN83vbJ4jj/jbOxgWxrhT8SGTppTp5szO3R7VVM4GrS27+tYaUTDR4su60wvqWLTzO4GhuufbjLduwIbQ1wY4pQqVKVzFHPmiPJyYt833iOq7HBfLDSUlUZTDrFtBmDfvtgXEoXV2YgO9ptx49e2/c+2WFANKOtFtO+XaZ9uyTZuYPKHlLcOV2oUkesk/yEtpgtBw9wkc5SVWmpqpRk56pL5qpmzY4n6eLEDLbjRyxVlbbjR7xflBeOt9ecRbzL1aTvWrsaAKAqmaOaNUdeOH5ge8lL+ixd96Z13ZvWxZN0sW0GsqP92r5dweZ0eeH41NVrzVWVloOVZIeB0GgVd05Xl8zt3rze50rD0Y7QaActeCjORrtgQOlsx48EnAqCSWd89y0f27DSwYmC0KRH6hP0PzF52ydtMdu+Onpt7/uuJj2imVCpGvbJF0KlCgDgamyAYa6rSd/68Hz08VUlcxRTZyimzujHPvMHy8FKS1UleuAHAAz75AsiTQsAIDva4Vec7DRcmncP+l2KqTOgev3V2xuH+22fMTYzoDNjbyTZuYMWPAh+sjqb8DkbLwiVKvTb42m0YwlLOvWsOUKFEv7Ifnz7ua9DSmc7fsR2/EiMShcbMwNM78xVn6KnAoiqZE7y7/+AvgyWqk9tx47YvjrK5ew8HO24w3EWhSimzhjyxDP9K51i2gzVrDlcuzsAcJ8Z+G4Ge81ZOK334b2S7FyRSg0ASFu3GQZLjm+qYXjg7mgnOwzw/xyPBguygxY8GCujHZSOy1TgDytd6pqXYbDkatLDbCHmpIv5MInsaIdTQTDFhUqVJNvzAB9Xkz7g9WbHwu5N61JXv0x2GtofLw92RopmjC7S6KTPdl/LS0zISZSrxdeJwxZk5YXjVSVzeFuQDVkkDU+619elrdtMdhoQiRZFMyY3dcVBXbY7EgghQjqe17J5Z4aAlT4IodHC5Z6AhTx7zVnbsX/Zvjrq/yWwVFWqS+aaqz4NeEarmza6SKOL9vxI0tVXrdVXrcMV0rxE+XCV3P9E9pqzcPkpZDwWSdDSKe6crph2dzDp4DTiL53t+BHHN9XWY/8KeMZekup2UiYXRQEBAMBO0vWmXoR0sJbN25U7voRJtMVs+nA3YipIfvTxpN//gcuhujetM+3b5fOiJDuX7DB4j4JwKrjipH5ygYfTXT3eP6oIYW6giYJl8IpVg8oe5tKxgaPn3bcQ0iUueHDIE3/mchzjO2/2vPuWz4uERktbLP7SGZ20nb7uy3PZZv/R5mB/lAhAXmLC6GRFMOmS//BE0sO/59KxGyH2HiLW9tgi4ztvBruckuxcjk4AAAx54s9sGMDiHQ+4aLrF5vrO5Gy3+zrBHwtJV1+1Hmi52u1wBWzQvmc3x44NEC0PzENLx9EJAIDkRx/3l857EKFohpXOxwn+uBhw/lrvgZarhl5nwAat723n2LHIwIswiaZIx/dNIqEgaAOrhbZaYBIc+mhWCzpllAiFaXJCIqSNLjKkGXLUsrzEBG2CNOBvuxzkFVPvKC7dGjCuNeoVhCjYb/tXOpFQ0F/SGZ1kq7t3DJduRQpezAwCIDhvcpjcVLAGZIeh/fFyxzehH4/u+Ka69eH5IQsd0A8FibIRCrGaCGDCwRLirrTE8pFDZ2iSAl5Ok5uqMzmbrS4qxPg44NSbnF0OMthvyQ5D68PzOUrX/nj5jUunJISTU1QhpdNbXGS0pfOBFzMDAMBBMfUmp1osSpGKUmUBeuVq0rc/Xk5otIqpM8SadOn1uZezscHZ1GCvOcu93gdJlIgSJSIXTRudtNFFkjSTo5aNSVIMkUmCvaXLQXbaSRsVamCMFCQDmq2uTjuZJicCSgeHEkKjlReOl2bn+Uvn7mgPti8DgY90LhqkycW3JgedCgCcSJ2UOfioF134YgaI2U2Z3VS73T1ESmhlhH/gRHYY/JPjkMgLxwsVSklOnjQ7V6hS01ZL559XeDeQCIVpcmGanKBoRpTkWwOBUDRjcJDdTtIR9bkgEDaKbra60NJZqiotILwVG+7SIQ5C0UyXk+x08FQ6Fn6ZAeKgmLZed1uvO1UmSpMRiIDYH0KjJdK08sLxIqWKvYTeDWirBbHBJmDeYiOpTgfZ5eDpeOaNt3RDpESiOGzppNm5Yk26JCdPrNH6VI3R0gXESdFtdrfRSfEtIgoIH83A0uWguhyUQiQMFgB4Q2i0yY8+HnLlv/PPK7ivyBqdZIcjxLQuTx3K8WiRxFu6wRIRojgBSV3zckjputau7l/piJ+2P/EEfiTQQlQ3YABw9mrvJavLGTxSJzsMXWtX/zhzcs+7b5GdgcNf075dIXdrAgAomumwu7/psestLvTlFCtVk/7rv0MeMFpA6Wp67GjpAABQuu5N64JJB3fghTxjWNLd8dprIQ8YSUQvvPBCsN/Z7Y7qmv+MH3u7XCYb2F4IBIr09Munz9CuwLV8AAANgIWkOxxkL0kJAZATgf3DuFz2mrOmfbtcTXqBVCoZNoL9FdlpuLxmFRP8FAAAJ0Vf6nX9YHUZXXTImf2WefffvWOnQqsN0W6A4S6d2U0TApR0zrrzpn27HN9UC1Uqb+loq8Xw+CP9K93UzW8k5eWHaNcfVNf8R5M2NCM99GXihxkASC4oGHHvvY7LndaWFppCjSh2irnqorqdJAAgQSQUCgIHAO5LP1r/+Q/LwUoBEEiGjxBIpJ1/XuG+9GOwwxqd5A8290Wb20Yy6DqRCAiGyohclXQwaZcMSZFmR3lPQXJBQc7vfidwOY0XLqClc9Ie6UgGKINLR3YYoHSM1SrNyRNIpJfXPIPY9GpyU5dsrh+4STdEKspXywaTdok6UTY6EssM3M3Al+0YrsYGeBcVyTAddvKKw+3kVrrkmGQHu4+RopmrLqrd7uZS6JAKgUYuSZGJCK+vkXx6sfa/XuXUVw44nE6ZNGhpMiBkR3v3pvVQuisOqsPu4i4dlyS7v6RLkYk1csJbOmnhhIz/fZdTX2+AWNu1yjCtyx4GDjsAgBAIdAliXYL4ioO87CQt7hAXlmOS7X85nRTdaSe7nCSXQodKLBwqJVICHb+9pqYf46SPPq4clJg48+67uFvi0u/msdJp5IRGThhdpMEennSIJDugdF1OqtPu5iJdgkiglYsDStd2/ruM0AeIHLwwA0PTNqvVZ3RPkREpMsJFMS29LqOTpgBKeJgpXrK50uTiVKlIKkJl5LDex7FUmiIVaeXihEBxNkUzbb1uk4Ts35vhz9fW6Zu+LxpXeOeUSVzaG02WZOl11zFZQiRLCBfFtNvdVxwUJ+kEIFVKpMmJ/pUuVUaoA808ULpuCTGRy4EiBS/MAAA4f82ZkSD2Xy2SiAQjVVJSyfQ4qdbeEAEAyQD0AoXJTXXa3caQu2qCTOsscAEODo2K0B8ubJxO5/ETp779ru6+WfcMy9ShG+strgyKCSjdCKVEp2B6nJTB7u5FBjMkAwwO0uAgkyXCNLnYP3bivtgiAgJNAjFUSkhEIaSTBF3ljw58MQMAoK3X3Wl3BxyfCIEAThRmNwWX9NGHggGATCQYIiUIASAZQNOM0U1xiW4REREIcxXp6+oapzPwhs1gmMxm73/v2vvRMF3GfbN+lZiIuhsGSpcsFWXIxTcondFFG11OVjoAgItiTG6ay/YTREQEwoxLowKPzAA4jE9qsUgtFmUmMJedoZNsuBzL/eyIaR2EM6uwXGppdYRpBrvd4fNK5+Wub2vrpoYKmUjGMwSoxSKNTOQTOIGfpBuu5FSf6Hfpup0xsITPLzOwsONTmoxIlQYIAMJKstGEnNa510x8+M39Yd8I//6eD1ta29gfx4wumHn39LDqS3B/l6zXHVA6tj7BMclGg5YO8G9TIxqemgHioJiLNndbrztZGjgHCCvJ9kcqBLoEyQ1O60N+8YuwTsqRTF3G1CmTQiYMwYDSXbQFTZ/CSrL9gdIlSUUBcyqO5aaEtLSwTjrQ8MMMQqFYqXIH2ffiHQAE3OAdVpINUYmFmQniG4+IkvLyJr7Sz9sxEtWqqVMmj7mV6y1DCOlAqNKzd5LNXTqtnEiWBP7mcI+IkvLypmzk13YMXphBIBAU7/7gyz8ssxlQW+phABCsfuqdKbb0uoMFAElikTYhaHTb5SA5RkQyiTjv3pKC1c8Llf2522zCuMJhmbqw4qLi3R+c/POqnoYGRBu29ByyPmHoJXuC7ClCjyDcIyKpmMi/796C1c/z7RkZfNmOIU9JycwaLmhu7DUa3civIg2A2e3ZpCQWCmR+dXGpSJgqI4ZKCQYAmmHg0RJEgsFSIlclHRqolO6k6A4H2Wh2XnWFLhPB70SWQiy+1Gz++ENxhk4yYmSYHzcoQwYnE0R4I5Q8JUWXlyP4scnRfcWFvC855P4uqUg4REYMlRIioYABAB4NSpellKQn+JaqwPXSuYPvZoAkiATDFJKRSrH4UrOpYp9Yo5Fk5YT1YfsA9+0YvJgZAACGPz5irzk7CIBBSXL0+MQSMskeoQxdxw6r0OFfM6Ft1ra3/m/ejPB2+fcvXS+vtlRVJgKQmCgLp37qCpZke+oTQIw+SFi3efhPyEyvreP1/8kuLuHy9sjACzMwFGU9d5YtSKjFInWiyEUxl51kRy+Jzu28k2z/KjsC7rcgioAgRSZKl4v9ayY2kmrrNkV3p961v1deJ104pWd0kh0MLvcqQNDStVztzeZ4yojACzMAAOquOXLVEu+vsnf9lMsCKjrJ9oZ7YoCombAbExQJUV5DqrvmyFKJvb/K4ZaeoyWdRB3elsSBhi9msFF0TY8jVRZgdIe5XS9JG+zukAEAexe1fwAQ1p24iDybb3eB2ij6/DVnwNHdW7qQpWdv6ZIl19UnwlpsQZSbwtraFHn4YgYIYg01gRCOVEmHKzntUmYDALVYJBPBV8ANTusgnPAg8iBGdygdOfDSJUuFmQmSmJOOhV9mgCDWUL13KXfZqZBJttlNmbntKkBM67HycAeAfLwIKx3HJDss6fxv84DcyPp95OGjGSDo9I5dQOWSZKNBlM+5bMvj4QMB0M/ICCvJRoOOiEKu3/PtgQD8MEOQ+w8hiDXUsJJsf1Kkohuf1vPLHwnrpJEEcfvODe7vQtzmwX39/vaVK8M66UDDCzMIhMK8RYsb/rYT0Qa9hhpWkg23lwW8VyGsiCh1woTxz65JKigI2XJA4SpdkNt3wkqyETvzwoqIUidMuG35iqFFvLq3hx9mAACMW71GN3Pmt29s7vr6a0Qz7z3eKVIiWJLdYQ8cOyFsENZue15dy3ClQ9QnyOAbvONSOh/4YgYAwNCiicW7J/bU11/YueOHTz5GN0asoXrvUja5PHelKETCRIkwYHQb1o0Kt8y7/7blKxQZvLp31yOdra3t2zc2h5SOrU8ETLL9pZMJBYliUcC9veFKl7+4POoTKQK+PB3DB5fZ3LBzR3PFfvTWPZY+PIgShLOEJFaq8svL8xaXS9T82lvmTx+kC/dBlCCcbXlQuqz7S6M1gsTa0zH8kKjVY5avGLN8RXPF/uaPK9ABAAhnDRVcfxtuSJLy8vIWl2eVhvjT0fyBla718KELO3dwlI7jMzzDevpyzEnHUzOwZJXOzyqdDwOA1sOHERv3wfV7vAM+iTosG9wy7/6s0lJ+Rrdc0M0s1s0strW1Xdi5o7miAi1dyMeLhCVdxt2/zC8vjznp+G4GiCIjY/L6DS6zubmiomHndnQAwD4jI1kiTJIQUpEAAOCkmB6vv2KIIOrTev+iyMgYt3oNnCjOv7GZu3RqsQhWTp0UYyEpLnsoxEpVVmlp/uLyGJUuNswAkajV+eXl+eXll8+cvrBjR9u//oluD5Ns7sePuWmdOxK1Gs6xl8+cbq6o4FafCGPlQaHVjlm+QjezmP85FYJYMgPL0KKJQ4sm2tramj+uuLBjBzoA4EKMTut9AEp32/IVzR9XcE+yEcSTdDFpBogiIyOsJNufWJ/W+0y/SKebOZOHVeYbIYbNwAIDAI4LFBCFVptVOj8mSqUDSlj1CUgMVZnDJR7MAEkqKJi8fsO41WvQVXYY3cZlYtBnONYn4l66+DEDBLFAkTphQtb9pXF8LW8Qtj7RevhQc0WFd30ijksL3sSbGVhgAAAAYCgKACAQhbfCejMDFygAK51QiN5WHDfErRlYsA36zM0mHS/+wCEGwwewGTAYD9gMGIwHbAYMxgM2AwbjAZsBg/GAzYDBeMBmwGA8YDNgMB6wGTAYD/FmhjkLHk0dXpg6vHDkmKlzy5Zs2/4B+6uWVsOipU/B384tW1Jbp49iP/nGiVPVUBlWur37P/NusP71LSPHTIW/3bBpa7T6OaDE4d6kBaX3ls2fDQAwmS2rX9pYW69/Y+OLAIBFS58aXZDTdP4YAGD1ixvmLlxy7t9ViWpVlLvLJ9aueXp0QS4AoKXN8OyLG76ra3jl+VUAgK3v7t66/YP3tr02ZdK4E6eqH176lFqlXPb7B6Ld3/6GCU73VePL61419vQg2vCN2b/9/brX3mJ/rPrHkZRht7P/uGYys79KGXZ71T+ORKGLvOTfJ8+mDLv93yfPsq9seWdX1q13wn/fPnnWBx9Wsr/6/19YP/u3v490F/vKm9u2n/66mkvLeAuTfIADf22dPlGt2rzhBTwPcEeXoTWbrfDfZfPvmzJxXHT7EwHiMEzyprZer1IpR4/KBQBM8Xr94BdHAQBTJsX/Be4bJrNl244PJhUVwh+fefIx799+fujLsvn3RaNfA0scmuHkmXMww2ttM+zd/9nmDS/4NDCZLWvWbly5YimeKHxYs3ajGs6l9XpduvZv2wL80fL1r28BAMRhwhCXZmhpNTDM2cwMrS5DW/3V3zN11/0BYJPZMq9syeSisT6jHQYAsKD0vtEFuQ8vfWpW8V1/ffUl/wZ7PjqwdfsHlXvfjstxJA7NUDb/PsQXfe6CJaMLcl5+flUkuxQrjC7InTJp3HvbXpu3cOmyRx6A4SXLno8OrH5pY+Xet31ejxviPIH24U9PPze6IOevr74UlwNbfzFl0rgl5QsXLXvKZP75yTFx7wRwU5nhT08/BwAIOPtjfHjmyccYxpMeAABq6/Rx7wQQl2FSQP709HP7Kv4OAID/h6xcsRRnDgFJVKv+uvHFeQuXziqenqhWzV24xGKxzihZ6N2m62JNtLo3QMSbGV55bpU6UAhUNn82XJb2Rpeh9W95czJ6VO4ne7Z5D/xTJo07UrUHAKBWq/62NUBZKf6INzMEm8fxkgKaRLXKXyJWTJ+KXLxyE+UMGAwabAYMxgM2AwbjAZsBg/GAzYDBeMBmwGA8YDNgMB6wGTAYD9gMGIwHbAYMxgM2AwbjAZsBg/GAzYDBeMBmwGA8YDNgMB6wGTAYD9gMGIwHbAYMxgM2AwbjAZsBg/GAzYDBeMBmiDIOp7OltS3avcAAgM0QdS5f7np/z4fR7gUGAGyGqHO560q0u4DxgM0QZRxOZ7S7gPGAzYDBeMBmwGA8YDNgMB6wGTAYD9gMGIyHeHskfcwxTJcBpkyKdi8wAGAzRJ1hmbphmbpo9wIDAA6TMBgWbAYMxgM2AwbjAZsBg/GAzYDBeMBmwGA8YDNgMB6wGaLMpZbWV9bfFH9ynP9gM0QZk8kc7S5gPGAzRJlrZmwGvoDNgMF4wGbAYDxgM2AwHrAZMBgP2AwYjAdshigzSK3O1GVEuxcYAPDNPVFnzK2jxtw6Ktq9wACAZwYMhgWbAYPxgM2AwXjAZsBgPGAzYDAesBkwGA/YDBiMB2yGKHO5q2sX/ss9/ACbIcpcamm7hP+mGz/AZogy+C/38AdsBgzGAzYDBuMBb9SLMviR9PwBmyHK4EfS8wccJmEwHrAZMBgP2AwYjAdsBgzGAzYDBuMBmwGD8YDNgMF4wGbAYDzE86Ib2dFuO37UdvyIs7GBtlqESpU0J08xdYZi6nRCkx7t3vEaKJ295qy95uzNI10cmoG2mG1fHb22931Xk/66160WeHW7N62TF45XlcxRzZoTrU7yEyidparSXnP2utf9pFPcOV2oUkernwNEXJnBXnPWcrDSUlXJpaW95mz36+sU02YM+u2Dkpy8CHSPz0DpbMeO0FZLyJb2mrNCpSr+pIsHM5Ad7ZaDB8xVn5IdBu/XVSVzAl5dQqOFLWmrxVJVaamqlGTnDip7KC5HOzQwHLq2730f6RRTZzibGnxeBEGkU5fMVc2aHQfSxbYZbMePWKoqbcePBPytUKkacfikpepTy8ED9pqzMORVTJ3Ruug3Pi1dTfqutavhaKeaNUdeOH7g+x5lQkinUg37+AvbsX9ZqiptXx1lpev8yxM+DnE16bs3revetA6GnTEtnYBhmGC/u2rs2fLOjseXPpI0aFAk+xQSsqP92r5dlqrKkHP6sE++INK03q84vqluf7wc/S5Cox204KH4GO18gNLZjh/xH/V98JfO1aRvfXg++l08lO6tt3cU/mJM0fixIVvG0swQLL3zR6hUKaZOV5XM9bmcAACGYSTZuT65tQ9khyFuRjsWmE1xlE4xdYa/dJTFzF06xdQZqpI5iqkzbrTfESQ2zOBqbLj24S4u6Z1QqVKVzFFOu1uSnStUqvwbyAvH697b72psMFd9ajl4AH1AGBYTGi0Mi2OxqhiWdIppM9Qlc9HSkR3t1/a+b/vqKHpusR0/Yjt+JLak43WYRFvMMDNGj0Zo5IXjU9e8DMe5nnffoixmeDS4+ODTmKIZkmGkosBrkTE02gWrL4eFvHD8kCf+LMnOBQCY9u2CBVYQRDoAAEUzIqEg4KEUU2fAfKzPnekz3MMknpoBXSRlhy6xRuvuMAAAyE4DYqCSF47X/u92dLbQS1LdTsrkok50XctVy3ITE7QJ0oAtCY1WMXXGoAUP8nO0QxdJCY0WjgusdLTVgjAMlA6dLbho+oqdMrpIg80hEYERStlwlTxgSzhvR1i6WM0ZglX6IPLC8Ym/fUBeOD5gckZbzLbjR2DhyOdX9pqzcNb2fxdFMyY3dcVB2Wk4KAgAAHqzQ292qAjhrUmK3MQEn4mC7DCY9u0y7dvFq5U7OIsipFPNmq2YOiOYdPaas6YPdweUznIwcKaBlM6cm5iQkyhXi6/7gtFWC5QO1rJ5Ih0LX2YGsqPd+O5biPWy1DUvc9TOUvVp18trfF5kC+Qs7FRAgetm9tNdPT7vzVXLEKOdauGi1OUruXRsgBho6eAk7D3PBJPuss3+o83h/cpwhTQvUR5MuoRpd2v+ZxOXjt0I3GcGfmzUY5iWB+5HXE554Xjuo4iqZK5//cfbCRTN6E3ORovb6KJ9LmdA9GZHg8ne7XAF/O2lg1UcOzZADLR0tNXCOoGime8tLu7SXbQ5EdJ1nDrJsWORgRdhEkPTVotFQYiCNWB32nE5mqtJ72xsQDQQCQW5iVKjkzS6aCtJI1oqCeGYQJEShKIZg4PskZDRrbyGlM7VpIdJcEjITkNI6UaqJBylywsUKbG09rq7XEQhl25FCl6YAQBQb3KmycVaGRGwHEFbLZfm3TPkyT8rps5AWAKGpNf2vh+yjAgASJYSyVLgoukrDuqqk6SvH+dy1LK84Dk0tEG3k3RQjCLaC5LnrzkzElDStT9ePqjsocQFD6Klsx0/0v36urCkMzppo4t0XW+K4QppbmLCCJUs4HspmrnqotrtbgfFSNSBw6dowRczkAxo63V32t3BLEFbLV1rVwMA5IXjJdm5IpUa/h+WSuH/Q64oQbzzB4lQmJ4gTE8Qw9HORdOTU1TBpgIAgJOiu5xUp91NBk21ogArXapU5N9z2moxvvOm8Z03+126NLkwTU6YXNRVJ+mgmZFq2V2axGDSwRGEb9J5wxczQKAl2nrdqTJRmowIOPvDXZPcjykvHE+kaQhNujQ7V6xJl+Tk9bz7lvGdN32awdEOgclNdTvJLgfF/dSRxFu6IVIiUTwg0pn27eretM6nWaJElCgJGqcBAGwk1engr3Qs/DIDS5eD6nJQCpEwTU6kyrh2EhbR5YXjRUqVJCdPmp3rX0l0Nen9nRCqM+QVJ2V28/1aQrylGywRBVsF84GLdGSnIb6l46kZIDaKbra6LtlcqVIiTU4Em38hQqVKXTJXVTLHf1ONN5fXPsvx7N6JAaKZOiuL4wEjiUc6AeAonWLqjEFlD6Gl61q7mktGAQCgaKbLSXY6QkiXkJbG5WgRgx9mEKIuFckAg4M0OMhkiTBFSiRLA/eZjYzhdZXdPs6/Tc+7b3HZnsB9Wk/Kyxv3f7i6a4AQK1XuIN9RVjq1WKSRiRDSwbUwxH6Tnnff4hJiOSm6ze42OqmQiYFCq73jtQFfZAgLXphBIBDM3LX75DOrbAbU3i+jiza6XLJed5qMSJUGLp4Ary1igxY8pCqZw5ZQuARI3Kd1edKg/EceLXjsDyFbDjTFuz/48g/L0NKZ3ZTZTcl63UOkRLC6E7h+d5139YmLdEYn2eHgJB0hleUvWnTbqmdCtowwohdeeCHY7+x2R3XNf8aPvV0uC1wm60eUGRn55Y+IbeYevZ50k4iWWb3XFwAADrFJREFUJAOuuel2O+miaalQIAkyq9BWS+/pE9fef5fsNIg16QKptP2P5cFmeYpm2u3kD1bXFSflpEOMaVIhGKGQZEkYSXODu+VH+dgJAomE48ccCOQpKdylM/8knUggkAWJneCGPCidSKUmNFrDk49RxqsBG1M0c9lBfm91XXZwlW5EglDWcJ7sNMgLxwskyKpFf1Bd8x9N2tCMdFQECOHFzAAAsB37V/fm9ZIOw+0JAiMhMdhJixu1pgM4J9nsNuyAm3a4T+sAAJVYmJkgVv9UqIG3Pjq6r2Zueiv0m7lxqaU13CfU22vOdr28GkpnFktbet1hSYdIskNK12knu5wkR+m0ciJZ8vNlslRV2v5zbsT+z0O/OVLwwwwM0/mXJ9ifkiVEsoRwUUxLr8vopCmAEptjku1/OU1uqq2X5DKti4AgWSrMTJBIRAG+NBfrL2SGPARnjp84JThx6s4pk7hbwvDHR9h/q8Wi0YkiF8W0291XHBQn6UIl2QGl67S7ja4QloOkSEVauTiBCHDwVkP3CC6HiBS8MAND010O0md0l4gEI1VSUsn0OKnWXpcTqbx3kp0mFwessrN0OchOO2mjQl9LqRCkyMQaOUEIAtjARlIXbSQl6ee64aXWtkt7PxozetTMu++SSUNHER12t0Yu9n5FIhKMUEp0CqbHSRns7l5kSScs6bgnBmjpnBT9vdXtkPPi68fCl940W11XnNRIpdhnfCIEghQZkSIjzG4KZrfo4xhdtNHllIkE6XKxTwDgvREgZH9UYuFQKZESJPryXoBThP5wfeF8bZ2+6fuicYV3hvojVxdtbqOLzkjwXWjjp3QwLoXSSfi1G4M3ZgAAmN1UTQ8VrAioFovUYlFmAnPZSV5xuNEThYNiYACQQIiUIoFQKDC7aY5LP4hpHYQzNAIAPjv4D5PJzKUly+WuK+y/nU7n8ROnvv2ububdd+Vmj0S8y+ym6k0hpBuuZDrsXKVrBkAt/lm6XpJTToWWjntcGi14ZAYIWwQMWD+ViAS6BLEuQXzFQV52hkiySQYejdN50dM6x1Ukf8LdhhPo9hKux0BLRwg80hldJJf6BHfpRECgSSAQ0nGfVaIL78wAcVDMRZu7rdedLA28SQkGAByTbDQhp3XuNRMf7pv1q3Df8v6eD1ta2+C/pRLJhPFjp4b5t0ChdBdtQfd3sfUJLkk2mgSRQCsXD4R0UYGnZoCQjKcIqBaLUqQi//ppWEm2P/CY6iApI8eaiWbKHeGdlRtjRhfMvHs6lwQ6GOjSc1hJtj9JYpE24UalG1LIq9sZeGIGoRCxpwD8FABcsrkC7lL2zhQNvWRPqKhUBAQpMlG6XBywVBrWtJ63aPFtTzwZsllYZOoyiu++a2hqKsf2SXl5PQ1B78hBl57DTbIBAClSUbAqM5SOY6Uu4+5fTt6wMWSzSMILMwgEgnnHjp98ZlXbv/6JaMbuUg5WBFSLRWpklR0d3YY1ratl4txpd2b9/hFCqQzdmjNTw1lhgMzcvaf65bU/fPIxok3I/V3e9YmOXjKgdIgRJKzbPKB0I5Y/KVFxunUxYvDCDAAAQgBuG/+L1Ev61lYD9yJgsCSbDQCuOikSMAAAAggGS0VJUlFAG4S7iuQZGs+dvnT/rwavWDWo7GHOHzQEffgD6YQA5OfeMiR32I8X27hJF3R/l3d9grt03G/z+LncdO5066LfJP/hiaSHf8/5gw44fDFD69KHyIs/SAEYqZIixidv0Ek2GwCgz9vlIDlGRMFmlfY9u/vRDH2g7bFF7h++FwEwUiXlXj9FJ9kcpeMYEUHphkoJn1ml9b3t2Ay+0BTp/KGZHaXCrZ+ik+yAhHULIqJm0uUgr5h6R3E55YBxrVHPfpvZ+ikX6UCfbqLieJsHRCoEugRJwFnF6CRb3b1juJwyUvDCDAIgOG9y3KKU+KQBcHzqJWmD3R0yAIBJdrs9xC7lsHbmIcpN7BKSItpPm643OYcpJD5f5bBKz2ySHewuakhYIwii3MRKJ1EP+G7osOCFGQAADoqpNzkDju4JhBAGAFccVIc9RP3UQTHBbgXmfstOsGkdwj08iAwkA5qtrk476T+6h7u/q1+kQ+TZPL8LlC9mgCBGd0Ig0MgJjZwwusguOxWyfgoDAAAAHJw4bihARERhhQeRB47uwaQLq37aN+kQEVGf1+8jDL/MAPEe3f3TO3YBlUuSDQDgviUpWEQUKw93AMiJEYS5vwtwlg4REYUVlEYdPpqBBZHehZVkI0BP61y25clTh/bt1AMK4vadfpQOcZsHF+nwAwECIEA+EAC9hhpWku2NVAg0ckmK7IamdbFSNem//pv7SSMM+vadPu/v6i/pJrz4EvfPEgH48eBhgWDS/6wTIx+lCtdQa3ocerPD6PS90xcm2eMHy4crJNJQnylBJBiplBQmJ/gvGjgputnqrOmxX7SFXnzIW7R43rHjidnZIc43wHCXrs7k9JcOJtmFg2VcpJMKQb9Id8u8++cdO546jl9/H4wXMwMAIKt0flrRxG/f2Nx6+DBikxJArqGySXawAMDnJubrDsv5RgWxUpVVWpq/uFyRkcHtww0sWaXzdTOLG3buuLBjB1o6xDMyvOsTATd4I/b2cl+/FytVupkzb1u+gifS+cAXMwAAFBkZk9dvcJnNDTt3NFfsRz/7BL2GygYAV10UyTAAAEIgGCwR+Ue3YRU6FFpt3uJHskpLJepoLy5cj0StHrN8Rd7i8uaKioad20NKh0iy2foEF+m472hUaLVZpfPzFpfzTTpveGQGCLyuY5avaK7Y3/xxRdfXX6Pbo5NsTfC7bMPalpc6YULW/aVZpSH+8Gt0kajV+eXl+eXlrYcPXdi5Iyzp/JNstHTct+Ul5eXlLS7nuXQQ3pmBJat0flbpfFtbG5fYieMaKsT7NtyQ3DLv/vzF5UkFBeH1PqroZhbrZhbb2tou7NzRXFHBSTpuD6IMV7qs0tKhRRPD63304K8ZIGzsxCUACPkQb+7RbUxM62gUGRnjVq8Zs3xF6+FD59/YHFI69DMyuC+2iJWq/PLyrPtL+ZkYIOC7GSBsAHD5zOkLO3agb3sAPwUAMpFgiJQgBAAA4KIYo5viEt3GRETEHYlaDefYy2dON1dUoG97AF7b472lM7lpLttPYigiCkhsmIFlaNHEoUUTbW1tzR9XhCyewEyR+8FjbloPCyjdbctXNH9cwaU+cRNKF2NmgCgyMsJKstHE7rTeB/pdOl5VmW+QmDQDCwwAeurrL+zcETLJ9keh1Y5ZviJ2p/UbIaz6hD9QOt3M4tjNqfyJbTNAkgoKuCfZkNQJE25bviLWp/Ubh61PcEmyIakTJuQvLtfNLI5A9yJMPJgBwrHKjm3gj3eS/e0bm29a6eLHDCywyt5TX9/8ccXlM6fhY1QUWu3Qookxt2IQYYYWTSzePREuUNyE0sWhGSBJBQXj4v3iDRBwgSLavYgC/Ni1isHwAGwGDMYDNgMG4wGbAYPxgM2AwXjAZsBgPGAzYDAesBkwGA/YDBiMB2wGDMYDNgMG4yGuzHDiVHXq8EL2v7F3lGzb/kG0OxUbrH99i490B784Gu1ORZq4MgPkkz3bui7WdF2seWPDi+te33ITXtS+MamoEOrWdbFm5Ypli5c9fbNJF4dmYJkyadys4ru2bt8NADCZLSdPn2P/0dIa+i6Wm5mFv5k9qajw80MeM9TW6aFiJ05VQxnjkrjdwg3RZWhb2gwAgNo6/byFSzdveGHFqhcy0jVt7R1LH/ndy8+tjHYHY4NnX9qQmaE9eeYcw4C29g5dhuaTPW9n6rTR7lc/E88zg8ls2Vfx2eiCXPaVk6erm84fqzlRdaRqz7btH9TW6aPYPT5z4lT1qTM1vy6ezr5y8NCXf9v6Ws2JqqbzxzLSNRs2bYli9waIOJwZ9lV8dvLMudp6/YnT1aPyc5558jH2V6ueeCxRrQIAjB6VOyo/58Tp6tGjcoMf6ebi1Jma1OGF8N8Z6Zq1a56edc/PZlj2yO+gVolq1ZSJ4/5x+MuodHJAiUMzMAzDMMzkorGrVizz+a57z+xqtdJkDu+REPHNqPycl59baTJbFi97+q8bX5wyaRyicW19Y8Q6FjHi0Axl82ejLyQmIGq1Euq2csXSRcueOvfvKjiL3jzEc86A6RvPPPmYLl27fOXz0e5IpMFmwATgrxtf/PzQl3idAYMBo0flrl3z9PJVz99UCzIChgn6YOqrxp4t7+x4fOkjSYMGRbJPGEw/8tbbOwp/MaZo/NiQLfHMgMF4wGbAYDxgM2AwHrAZMBgP2AwYjAdsBgzGAzYDBuMBmwGD8YDNgMF4wGbAYDygzCAUCAAAAiCIVGcwmAFBIOD0HUaZQSqTAgB67fb+6REGEw167XaZTMalJcoMCXK5UCi0Wm391CsMJtIwDONwOFRKJZfGIXKGRLW622jsj15hMFHgctcVAEBSUiKXxiHMkHXLcH1jUz90CoOJBg36xqSkQYMS+8MMudkjDR2dJpO5PzqGwUSa2vqG/Nwcjo1DmGH4sMyUIYP/ferMDfcKg4k0tfUNVpttfOHtHNuHXmcovnv6f85/d81kurGOYTCR5quTp4rGj1UqFRzbhzbD8GGZ+bk5H1ZUut3uG+sbBhM5Kv9+kKboKROLuL+F0wr0vb8udrmcH35c6XaTfe0bBhM5Dh/5sra+oXTufRKJmPu7OJlBIpGUzp19+XLXzl0fmC34KXQY/uJ2uz/6uPLr6prZJb9KG5oa1ntRT8fwwdbbW/HJga7uq9PumDyu8Bccl7gxmIihb/z+8JEvAQDz580O1wkgLDNAztfWHfvqJCEmskYM12WkD0pMVCmV3HMUDKYfsdsdFqvlmsnc3m641NrWdaV78sQJE8ePJYi+PDc1bDNAausvNH3/Q/OPF51OZx/ejsH0IyKRaHimbmTWLaPy8+RyTtuQAtJHM7DY7Q5br623136Dx8Fg+oBMJlUoFEpF/wQmN2oGDCZuwDf3YDAesBkwGA//DzseXwlvpmHTAAAAAElFTkSuQmCC;" vertex="1" parent="1">
          <mxGeometry x="790" y="-75" width="260" height="405" as="geometry" />
        </mxCell>
        <mxCell id="URvP16V56wutfkIFJM5n-39" value="Coordinator" style="rounded=0;whiteSpace=wrap;html=1;" vertex="1" parent="1">
          <mxGeometry x="-270" y="253" width="180" height="60" as="geometry" />
        </mxCell>
        <mxCell id="URvP16V56wutfkIFJM5n-41" style="edgeStyle=orthogonalEdgeStyle;rounded=0;orthogonalLoop=1;jettySize=auto;html=1;entryX=0;entryY=0.183;entryDx=0;entryDy=0;entryPerimeter=0;startArrow=classic;startFill=1;" edge="1" parent="1" source="URvP16V56wutfkIFJM5n-39" target="YoOEF6NpQiSxoWh0JSfD-3">
          <mxGeometry relative="1" as="geometry">
            <Array as="points">
              <mxPoint x="-180" y="442" />
            </Array>
          </mxGeometry>
        </mxCell>
        <mxCell id="URvP16V56wutfkIFJM5n-43" value="&lt;div&gt;Transactions&lt;/div&gt;&lt;div&gt;&lt;br&gt;&lt;/div&gt;" style="text;html=1;align=center;verticalAlign=middle;resizable=0;points=[];autosize=1;strokeColor=none;fillColor=none;" vertex="1" parent="1">
          <mxGeometry x="-180" y="330" width="90" height="40" as="geometry" />
        </mxCell>
        <mxCell id="URvP16V56wutfkIFJM5n-45" style="edgeStyle=orthogonalEdgeStyle;rounded=0;orthogonalLoop=1;jettySize=auto;html=1;exitX=0.5;exitY=1;exitDx=0;exitDy=0;entryX=0.006;entryY=0.908;entryDx=0;entryDy=0;entryPerimeter=0;" edge="1" parent="1" source="URvP16V56wutfkIFJM5n-39" target="YoOEF6NpQiSxoWh0JSfD-2">
          <mxGeometry relative="1" as="geometry" />
        </mxCell>
        <mxCell id="URvP16V56wutfkIFJM5n-46" value="MongoDB Replica" style="shape=cylinder3;whiteSpace=wrap;html=1;boundedLbl=1;backgroundOutline=1;size=15;" vertex="1" parent="1">
          <mxGeometry x="800" y="508" width="110" height="120" as="geometry" />
        </mxCell>
        <mxCell id="URvP16V56wutfkIFJM5n-47" value="MongoDB Replica" style="shape=cylinder3;whiteSpace=wrap;html=1;boundedLbl=1;backgroundOutline=1;size=15;" vertex="1" parent="1">
          <mxGeometry x="800" y="350" width="110" height="120" as="geometry" />
        </mxCell>
        <mxCell id="URvP16V56wutfkIFJM5n-48" style="edgeStyle=orthogonalEdgeStyle;rounded=0;orthogonalLoop=1;jettySize=auto;html=1;entryX=0.018;entryY=0.583;entryDx=0;entryDy=0;entryPerimeter=0;" edge="1" parent="1" source="YoOEF6NpQiSxoWh0JSfD-4" target="URvP16V56wutfkIFJM5n-47">
          <mxGeometry relative="1" as="geometry" />
        </mxCell>
        <mxCell id="URvP16V56wutfkIFJM5n-49" style="edgeStyle=orthogonalEdgeStyle;rounded=0;orthogonalLoop=1;jettySize=auto;html=1;entryX=-0.009;entryY=0.558;entryDx=0;entryDy=0;entryPerimeter=0;" edge="1" parent="1" source="YoOEF6NpQiSxoWh0JSfD-4" target="URvP16V56wutfkIFJM5n-46">
          <mxGeometry relative="1" as="geometry" />
        </mxCell>
      </root>
    </mxGraphModel>
  </diagram>
</mxfile>
